<?xml version="1.0" encoding="UTF-8" standalone="no"?>
<!-- Created with Inkscape (http://www.inkscape.org/) -->

<svg
   width="140.64372mm"
   height="99.991936mm"
   viewBox="0 0 140.64372 99.991936"
   version="1.1"
   id="svg1"
   xml:space="preserve"
   xmlns="http://www.w3.org/2000/svg"
   xmlns:svg="http://www.w3.org/2000/svg"><defs
     id="defs1"><rect
       x="221.81949"
       y="426.08792"
       width="170.18018"
       height="31.471518"
       id="rect149" /></defs><g
     id="layer1"
     transform="translate(-34.678136,-98.504033)"><rect
       style="display:none;fill:#ffffff;fill-opacity:1;stroke-width:0.289571"
       id="rect3"
       width="210"
       height="297"
       x="0"
       y="0" /><g
       id="g149"
       transform="matrix(2.1189635,0,0,2.1189635,-5.3120849,-35.882152)"
       style="display:inline"
       mask="none"><text
         xml:space="preserve"
         transform="matrix(0.36564059,0,0,0.36564059,-52.736338,-56.885682)"
         id="text144"
         style="font-size:10.6667px;line-height:1;font-family:open;-inkscape-font-specification:open;text-align:start;word-spacing:0.05px;direction:ltr;white-space:pre;shape-inside:url(#rect149);shape-padding:0.190034;display:inline;fill:#818284;fill-opacity:1"
         x="482.11453"
         y="0"><tspan
           x="222.00977"
           y="434.64937"
           id="tspan1844"><tspan
             dx="0 0 0 0 0 0 -0.049999047 0.050000191 0 0 0 -0.050001431 0.050000191 0 0 0 0 0 -0.050005246"
             style="font-family:'URW Gothic';-inkscape-font-specification:'URW Gothic'"
             id="tspan1842">Health Time Series
</tspan></tspan><tspan
           x="222.00977"
           y="445.80541"
           id="tspan1850"><tspan
             style="font-family:'URW Gothic';-inkscape-font-specification:'URW Gothic'"
             id="tspan1846">Repository</tspan><tspan
             dx="-0.049997617"
             style="font-weight:600;font-family:'URW Gothic';-inkscape-font-specification:'URW Gothic Semi-Bold'"
             id="tspan1848"> </tspan></tspan></text><text
         xml:space="preserve"
         style="font-style:normal;font-variant:normal;font-weight:600;font-stretch:normal;font-size:16.9333px;font-family:'URW Gothic';-inkscape-font-specification:'URW Gothic Semi-Bold';display:inline;fill:#818284;fill-opacity:1;stroke-width:0.264583"
         x="27.192263"
         y="97.042831"
         id="text145"><tspan
           id="tspan145"
           style="font-style:normal;font-variant:normal;font-weight:600;font-stretch:normal;font-family:'URW Gothic';-inkscape-font-specification:'URW Gothic Semi-Bold';fill:#818284;fill-opacity:1;stroke-width:0.264583"
           x="27.192263"
           y="97.042831">LABIC</tspan></text><g
         id="g44"><path
           style="display:inline;fill:#818284;fill-opacity:1;fill-rule:nonzero;stroke:none;stroke-width:1.41111;stroke-linecap:round;stroke-dasharray:none;stroke-dashoffset:5.3983;stroke-opacity:1"
           d="m 74.858965,103.49633 c -0.03794,-0.0813 -0.02829,-0.39579 -0.227632,-0.48782 -0.802632,-0.37053 -7.778134,1.78552 -8.412674,2.32117 -0.118319,0.0999 -0.107203,0.22901 -0.128644,0.27481 0.03992,0.0311 0.08871,0.15112 0.239501,0.1863 0.80868,0.18869 8.001935,-1.06161 8.548431,-1.75648 0.13573,-0.17258 -0.01582,-0.44832 -0.01898,-0.53798 z"
           id="path148"
           transform="matrix(1.0702695,0.09162299,-0.09162299,1.0702695,3.9063964,-8.7551996)" /><path
           style="display:inline;fill:#818284;fill-opacity:1;fill-rule:nonzero;stroke:none;stroke-width:1.41111;stroke-linecap:round;stroke-dasharray:none;stroke-dashoffset:5.3983;stroke-opacity:1"
           d="m 74.858965,103.49633 c -0.03794,-0.0813 -0.02829,-0.39579 -0.227632,-0.48782 -0.802632,-0.37053 -7.778134,1.78552 -8.412674,2.32117 -0.118319,0.0999 -0.107203,0.22901 -0.128644,0.27481 0.03992,0.0311 0.08871,0.15112 0.239501,0.1863 0.80868,0.18869 8.001935,-1.06161 8.548431,-1.75648 0.13573,-0.17258 -0.01582,-0.44832 -0.01898,-0.53798 z"
           id="path9"
           transform="matrix(1.0702695,0.09162299,-0.09162299,1.0702695,3.9063956,-13.480662)" /><path
           style="display:inline;fill:#818284;fill-opacity:1;fill-rule:nonzero;stroke:none;stroke-width:1.41111;stroke-linecap:round;stroke-dasharray:none;stroke-dashoffset:5.3983;stroke-opacity:1"
           d="m 74.858965,103.49633 c -0.03794,-0.0813 -0.02829,-0.39579 -0.227632,-0.48782 -0.802632,-0.37053 -7.778134,1.78552 -8.412674,2.32117 -0.118319,0.0999 -0.107203,0.22901 -0.128644,0.27481 0.03992,0.0311 0.08871,0.15112 0.239501,0.1863 0.80868,0.18869 8.001935,-1.06161 8.548431,-1.75648 0.13573,-0.17258 -0.01582,-0.44832 -0.01898,-0.53798 z"
           id="path4"
           transform="matrix(1.0702695,0.09162299,-0.09162299,1.0702695,3.9063956,-11.117931)" /><path
           id="path145"
           mask="none"
           style="display:inline;opacity:1;fill:#ed8232;fill-opacity:1;fill-rule:nonzero;stroke:none;stroke-width:1.41111;stroke-linecap:round;stroke-linejoin:round;stroke-dasharray:none;stroke-opacity:1"
           d="m 75.209387,104.4207 c 0.0092,-0.0148 0.05504,-0.0274 0.05578,-0.0881 0.0026,-0.21081 -0.212882,-1.06308 -0.247645,-1.7305 -0.0058,-0.11084 -0.0094,-0.21346 -0.01304,-0.31568 -0.01169,-0.33028 -0.02125,-0.68965 -9.62e-4,-1.05965 0.0222,-0.40495 0.08141,-0.85894 0.226877,-1.368442 0.124971,-0.437704 0.312582,-0.91239 0.588535,-1.420704 0.05729,-0.10553 0.118212,-0.21218 0.182929,-0.319881 0.440176,-0.732537 1.026587,-1.520791 1.807796,-2.421483 0.757944,-0.873867 1.461859,-1.589465 2.234128,-2.407599 a 5.5567731e-4,0.03482832 41.10799 0 0 0.02931,-0.03469 c 1.521952,-1.721413 2.4402,-3.610966 2.876282,-5.373674 0.281747,-1.138863 0.371733,-2.235996 0.345709,-3.25611 -0.0104,-1.683993 -0.295869,-3.224954 -0.784654,-4.609131 -0.499024,-1.413172 -1.213957,-2.674652 -2.082759,-3.772867 -0.258644,-0.32694 -0.531438,-0.640069 -0.816992,-0.939048 -1.79408,-1.878422 -3.932712,-3.018081 -5.904189,-3.640717 -1.997917,-0.630986 -4.892569,-1.057199 -8.044923,-0.200721 -0.318502,0.08653 -0.644027,0.187593 -0.974479,0.30525 -2.014641,0.717314 -4.219293,2.06061 -6.022534,4.42633 -0.382865,0.468715 -0.743632,0.846491 -1.109041,1.137283 -0.327648,0.260742 -0.667835,0.459668 -1.076245,0.614201 -0.385495,0.145861 -0.841192,0.256553 -1.452236,0.349519 -0.585586,0.08909 -1.265012,0.155533 -2.153313,0.235699 -1.355715,0.131221 -2.81437,0.267797 -4.269766,0.406168 -0.9159,0.08105 -1.64523,0.06362 -2.237884,-0.0082 -0.163079,-0.01977 -0.317057,-0.04385 -0.46287,-0.07156 -0.65214,-0.123935 -1.144039,-0.320578 -1.578552,-0.540666 -0.215871,-0.109342 -0.409416,-0.21991 -0.620108,-0.339114 -0.197448,-0.111711 -0.416909,-0.235059 -0.643353,-0.340276 -0.227387,-0.105656 -0.479433,-0.201761 -0.762233,-0.262206 -0.281147,-0.06009 -0.579985,-0.08228 -0.906018,-0.05389 -0.346972,0.03018 -0.660834,0.126391 -0.943033,0.278032 -0.274244,0.147366 -0.50313,0.339343 -0.694899,0.54336 -0.187929,0.199933 -0.346536,0.417576 -0.484932,0.627301 -0.135356,0.205119 -0.263745,0.422133 -0.379637,0.614139 -0.118875,0.196947 -0.228832,0.374883 -0.34445,0.537639 -0.113868,0.160291 -0.225222,0.294215 -0.340937,0.403463 -0.113191,0.106866 -0.229364,0.188989 -0.355325,0.248537 -0.123916,0.05858 -0.27247,0.102564 -0.459868,0.118604 -0.152166,0.01302 -0.288995,0.06015 -0.405622,0.125835 -0.113688,0.06403 -0.202895,0.142491 -0.27131,0.216958 -0.06828,0.07432 -0.122491,0.151857 -0.165697,0.223935 -0.04347,0.07252 -0.08002,0.146595 -0.111128,0.218457 -0.06143,0.141931 -0.110419,0.295849 -0.150853,0.450432 -0.0408,0.155983 -0.07601,0.324784 -0.106836,0.501374 -0.06132,0.351271 -0.10891,0.754459 -0.146654,1.184519 -0.03774,0.429992 -0.06633,0.895092 -0.08841,1.374006 -0.04398,0.95406 -0.06258,1.973367 -0.07496,2.893207 -0.0067,0.500316 -0.0095,0.781937 -0.01625,1.282251 -0.0054,0.389837 -0.01164,0.729765 -0.02081,1.003956 -6.59e-4,0.02036 -0.0014,0.01754 0.0012,-3.9e-4 0.0013,-0.0092 0.0049,-0.032 0.01309,-0.06287 0.0069,-0.02615 0.02493,-0.0887 0.06576,-0.162991 0.02138,-0.0389 0.05532,-0.09266 0.106798,-0.149041 0.052,-0.05696 0.129405,-0.124719 0.237123,-0.177198 0.111996,-0.05456 0.239272,-0.08379 0.371655,-0.07975 0.126534,0.0039 0.236002,0.03831 0.316038,0.07646 0.07822,0.03728 0.136125,0.08075 0.174506,0.113952 0.03902,0.03375 0.0678,0.06554 0.08717,0.08892 0.03733,0.04504 0.05976,0.08321 0.06933,0.100243 0.01097,0.01952 0.01734,0.03352 0.01958,0.03856 0.0028,0.0062 0.003,0.0072 0.002,0.0046 -0.0025,-0.0065 -0.0084,-0.0228 -0.01727,-0.05098 -0.01784,-0.05673 -0.04109,-0.139888 -0.06959,-0.252293 -0.05677,-0.223875 -0.126876,-0.533814 -0.208673,-0.921574 -0.08153,-0.386494 -0.17339,-0.844133 -0.27371,-1.361025 -0.200879,-1.035009 -0.434456,-2.301258 -0.685203,-3.698197 -0.251224,-1.399599 -0.519434,-2.928985 -0.788943,-4.486401 -0.54113,-3.127036 -1.0889,-6.375195 -1.516546,-8.922739 -0.211866,-1.262112 -0.330522,-1.972119 -0.542388,-3.234231 -0.07081,-0.421503 -0.130344,-0.77472 -0.17686,-1.048249 -0.0233,-0.137032 -0.04335,-0.254105 -0.05992,-0.349858 -0.01658,-0.09579 -0.02976,-0.170623 -0.03945,-0.223775 -0.0065,-0.03603 -0.01438,-0.07498 -0.02409,-0.114094 -0.0087,-0.03519 -0.02381,-0.09061 -0.0487,-0.151379 -0.01259,-0.03073 -0.03363,-0.07758 -0.0661,-0.12988 -0.01674,-0.02696 -0.03966,-0.06048 -0.06993,-0.0964 -0.02993,-0.03552 -0.07242,-0.07977 -0.129516,-0.123012 -0.05757,-0.0436 -0.135858,-0.09055 -0.235242,-0.122732 -0.102249,-0.03311 -0.215861,-0.04685 -0.333553,-0.03345 -0.116294,0.01325 -0.215754,0.05054 -0.295163,0.09465 -0.07757,0.04309 -0.135806,0.09242 -0.176945,0.133616 -0.0783,0.0784 -0.123208,0.156131 -0.145154,0.197998 -0.02443,0.0466 -0.04045,0.08786 -0.05045,0.11624 -0.01972,0.05599 -0.03154,0.106791 -0.03862,0.140698 -0.01461,0.06999 -0.02466,0.145476 -0.03228,0.21379 -0.01574,0.141032 -0.02903,0.325735 -0.04088,0.537244 -0.01206,0.215256 -0.02327,0.470301 -0.03386,0.75617 -0.0213,0.574871 -0.04056,1.286798 -0.0592,2.072981 -0.01876,0.791478 -0.0372,1.671926 -0.05633,2.56696 -0.03926,1.836205 -0.08154,3.733939 -0.139242,5.32576 -0.02453,0.676858 -0.05156,1.289581 -0.08183,1.811747 -0.0057,0.09899 -0.01162,0.194999 -0.01765,0.287741 -0.01873,0.287968 -0.03876,0.54225 -0.0601,0.755501 -0.02132,0.212971 -0.04255,0.370533 -0.06229,0.476278 -0.04032,0.225908 -0.09702,0.395252 -0.158167,0.520423 -0.05738,0.117464 -0.117822,0.194492 -0.172507,0.24624 -0.05251,0.04969 -0.108062,0.08404 -0.167823,0.108345 -0.05979,0.02432 -0.128653,0.04028 -0.205128,0.04759 -0.04788,0.0045 -0.128002,0.0025 -0.248044,-0.01726 -0.117481,-0.01937 -0.255612,-0.05278 -0.415126,-0.100003 -0.322589,-0.0955 -0.682256,-0.231859 -1.077024,-0.381248 -0.384372,-0.145455 -0.797869,-0.301602 -1.186563,-0.414205 -0.197458,-0.0572 -0.39821,-0.10611 -0.594745,-0.137156 -0.196472,-0.03104 -0.404668,-0.04684 -0.610864,-0.02811 -0.202552,0.01844 -0.385365,0.05251 -0.552945,0.101488 -0.1706,0.04986 -0.319941,0.113591 -0.453603,0.186831 -0.135037,0.07399 -0.248155,0.154483 -0.344323,0.231325 -0.09505,0.07595 -0.180404,0.154142 -0.246786,0.215037 -0.145523,0.133496 -0.23929,0.218632 -0.363969,0.29364 -0.132171,0.07952 -0.306253,0.151365 -0.589318,0.199114 -1.102961,0.207737 -1.911722,0.428633 -2.117402,0.670029 -0.07352,0.08629 -0.0853,0.220027 -0.102362,0.264032 0.02794,0.03803 0.07419,0.164077 0.167663,0.22821 0.261506,0.179419 1.099888,0.181804 2.218861,0.09478 0.413219,-0.04448 0.751789,-0.142596 1.04769,-0.292898 0.274834,-0.1396 0.474025,-0.305019 0.629609,-0.433657 0.07672,-0.06344 0.134498,-0.111043 0.193627,-0.154009 0.05517,-0.04009 0.105221,-0.07131 0.157129,-0.09714 0.05025,-0.02501 0.109114,-0.04837 0.182853,-0.06792 0.07368,-0.01953 0.168429,-0.03689 0.292479,-0.04641 0.05659,-0.0037 0.142693,-1.09e-4 0.266642,0.02095 0.121109,0.02057 0.261873,0.05497 0.423334,0.103083 0.325149,0.09689 0.684585,0.233939 1.079237,0.385298 0.380015,0.145745 0.791961,0.304482 1.174831,0.419448 0.193972,0.05824 0.391902,0.108851 0.585522,0.141727 0.19246,0.03268 0.399279,0.05114 0.605062,0.03389 0.187918,-0.01532 0.39288,-0.05443 0.600067,-0.133548 0.214329,-0.08184 0.423494,-0.203501 0.615222,-0.374364 0.198272,-0.176695 0.364818,-0.39431 0.499017,-0.648973 0.140161,-0.265978 0.242447,-0.567253 0.31247,-0.898222 0.03462,-0.169036 0.0637,-0.377353 0.08924,-0.60651 0.02636,-0.236512 0.05046,-0.509516 0.0727,-0.807887 0.0072,-0.09659 0.01423,-0.196133 0.02109,-0.298283 0.0361,-0.537467 0.06831,-1.162377 0.09758,-1.845451 0.06877,-1.605054 0.120665,-3.514819 0.168451,-5.348895 0.02335,-0.89611 0.04573,-1.774174 0.06817,-2.563044 0.02232,-0.784465 0.04488,-1.487587 0.06905,-2.051179 0.01202,-0.280273 0.02436,-0.524191 0.03713,-0.725368 0.01288,-0.202782 0.02567,-0.353091 0.03761,-0.448819 0.0057,-0.04536 0.01177,-0.07591 0.01045,-0.06801 -7.9e-5,4.73e-4 -0.0038,0.02145 -0.01626,0.05705 -0.0062,0.01775 -0.01842,0.04998 -0.03901,0.08929 -0.01811,0.03457 -0.05913,0.106666 -0.133531,0.181169 -0.03919,0.03924 -0.09546,0.08705 -0.171064,0.129047 -0.07744,0.04302 -0.174925,0.07965 -0.289205,0.09267 -0.115738,0.01318 -0.227358,-3.53e-4 -0.327607,-0.03281 -0.09738,-0.03153 -0.17366,-0.07739 -0.229219,-0.119468 -0.05508,-0.04171 -0.09554,-0.084 -0.123444,-0.117098 -0.02824,-0.0335 -0.04912,-0.06417 -0.06381,-0.0878 -0.02837,-0.04568 -0.04529,-0.08414 -0.05371,-0.104629 -0.01939,-0.0472 -0.02183,-0.06257 -0.02331,-0.06794 -0.0012,-0.0044 -1.3e-4,4.06e-4 0.0021,0.01429 0.0083,0.04901 0.01995,0.118453 0.03594,0.21443 0.0012,0.007 0.05646,0.340079 0.05763,0.347124 0.01915,0.115615 0.154028,0.931388 0.173182,1.046999 -0.138554,-0.837965 0.675013,4.073885 0.536458,3.23592 0.424224,2.549868 0.96912,5.800307 1.508428,8.932731 0.268545,1.559771 0.536143,3.092831 0.787033,4.496927 0.25028,1.400684 0.484335,2.675284 0.686335,3.720886 0.10088,0.522181 0.19408,0.98888 0.277556,1.386601 0.08311,0.395977 0.157906,0.729969 0.222081,0.984624 0.03194,0.126756 0.0632,0.241651 0.09336,0.338352 0.0151,0.0484 0.0317,0.09801 0.04984,0.145517 0.0092,0.02403 0.01974,0.05017 0.03178,0.07713 0.01173,0.02627 0.02722,0.05866 0.04682,0.09353 0.01822,0.0324 0.04887,0.08297 0.09397,0.13738 0.02326,0.02806 0.05581,0.06378 0.0985,0.100704 0.04205,0.03637 0.103501,0.08224 0.185164,0.121168 0.08348,0.03979 0.196273,0.0751 0.325997,0.07907 0.135623,0.0041 0.266001,-0.02576 0.380985,-0.08178 0.110705,-0.05393 0.190983,-0.123933 0.245731,-0.1839 0.05424,-0.05942 0.09083,-0.116984 0.114736,-0.160483 0.04589,-0.0835 0.06848,-0.158404 0.07952,-0.200145 0.01229,-0.04647 0.01951,-0.08801 0.02402,-0.119328 0.0089,-0.06193 0.0126,-0.122225 0.01436,-0.172396 0.01032,-0.291269 0.01717,-0.644729 0.02305,-1.03597 0.0048,-0.32057 0.0125,-0.962836 0.01732,-1.283403 0.01294,-0.917369 0.03164,-1.914685 0.07457,-2.841027 0.02151,-0.464284 0.04891,-0.906061 0.08418,-1.307438 0.03554,-0.404338 0.07828,-0.75837 0.128911,-1.048396 0.02532,-0.145035 0.05167,-0.268542 0.07841,-0.370766 0.02727,-0.104244 0.05196,-0.174797 0.07075,-0.21824 0.0087,-0.02011 0.01488,-0.03083 0.01442,-0.03006 -4.66e-4,7.73e-4 -0.0075,0.01346 -0.02973,0.0377 -0.02128,0.02316 -0.06156,0.06138 -0.124484,0.09681 -0.06579,0.03705 -0.149934,0.06724 -0.247498,0.07559 0.373251,-0.03196 0.708959,-0.124521 1.010897,-0.267231 0.302785,-0.143111 0.556724,-0.329565 0.772646,-0.533289 0.215878,-0.203684 0.395343,-0.426177 0.548503,-0.641499 0.153442,-0.21572 0.290225,-0.438424 0.410728,-0.637609 0.127105,-0.210097 0.232991,-0.388582 0.345546,-0.558539 0.111579,-0.168483 0.213358,-0.302917 0.314527,-0.40996 0.100675,-0.106521 0.193417,-0.177961 0.283101,-0.225626 0.08785,-0.04669 0.188843,-0.07925 0.317777,-0.08983 0.163073,-0.0135 0.300016,-0.0013 0.425682,0.02645 0.131227,0.02896 0.263408,0.07752 0.415062,0.149369 0.158248,0.07497 0.323204,0.168327 0.524122,0.284151 0.199727,0.115137 0.427353,0.247933 0.682124,0.379781 0.540156,0.27954 1.176675,0.541323 2.008508,0.707004 0.18281,0.03641 0.373277,0.06781 0.572222,0.09367 0.724059,0.09411 1.57208,0.11582 2.588088,0.03149 1.457738,-0.111015 2.918382,-0.224353 4.276674,-0.325472 0.88294,-0.07152 1.611325,-0.133162 2.257417,-0.221454 0.682418,-0.09326 1.273159,-0.217168 1.816009,-0.407542 0.594974,-0.208653 1.106389,-0.487774 1.587551,-0.846708 0.529889,-0.395282 1.00927,-0.87848 1.466229,-1.404266 a 0.00328669,0.09287168 36.775488 0 0 0.02731,-0.03397 c 1.565245,-2.021665 3.45458,-3.137768 5.164352,-3.719206 0.281498,-0.09573 0.558894,-0.177257 0.83045,-0.246372 2.699846,-0.687143 5.157246,-0.254279 6.847172,0.336031 1.664622,0.58147 3.426549,1.600391 4.878267,3.17643 0.231079,0.250868 0.450648,0.512648 0.657782,0.784917 0.694988,0.913532 1.256917,1.954223 1.642168,3.112961 0.376974,1.133846 0.593195,2.406128 0.58282,3.814151 -0.02588,0.838502 -0.132266,1.735801 -0.341539,2.658349 -0.325742,1.435992 -0.909174,3.023333 -2.058528,4.601206 l 0.02931,-0.03469 c -0.699083,0.852385 -1.370641,1.621694 -2.126044,2.601943 -0.777677,1.009153 -1.378423,1.9092 -1.847241,2.778838 -0.06875,0.127538 -0.135016,0.25384 -0.198718,0.379097 -0.306334,0.602343 -0.550692,1.175226 -0.725336,1.731903 -0.204067,0.650463 -0.308788,1.267029 -0.306323,1.849759 0.0023,0.54066 0.09735,1.03768 0.277712,1.47285 0.05345,0.12896 0.116799,0.25733 0.189021,0.38334 0.459022,0.80091 1.199077,1.33807 1.436107,1.40433 0.05929,0.0166 0.08371,-0.0254 0.09997,-0.0304 z"
           transform="matrix(1.0702695,0.09162299,-0.09162299,1.0702695,3.8007181,-8.6902345)" /></g></g></g></svg>
